Coordinates
version=1
nRows=7
nColumns=33
inDegrees=yes

Units are S.I. units (second, meters, Newtons, ...)
Angles are in degrees.

endheader
time	ground_thorax_rot_x	ground_thorax_rot_y	ground_thorax_rot_z	ground_thorax_tx	ground_thorax_ty	ground_thorax_tz	clav_prot_r	clav_elev_r	scapula_abduction_r	scapula_elevation_r	scapula_upward_rot_r	scapula_winging_r	shoulder_elv_r	plane_of_elev_r	axial_rot_r	elbow_flexion_r	pro_sup_r	wrist_flex_r	wrist_dev_r	clav_prot_l	clav_elev_l	scapula_abduction_l	scapula_elevation_l	scapula_upward_rot_l	scapula_winging_l	shoulder_elv_l	plane_of_elev_l	axial_rot_l	elbow_flexion_l	pro_sup_l	wrist_flex_l	wrist_dev_l
      4.10000000	      0.66150882	    -41.88994640	     90.00000000	     31.29589976	    774.56661458	    -34.19127965	     25.81545991	    -45.00000000	     40.25026990	    -45.00000000	    -45.00000000	  -3722.87571233	  -2983.79591830	    141.64943842	   -179.99999979	   1789.28491066	    425.68878754	     20.26072544	     14.86064858	     -6.38389148	     35.88694142	    -27.51536066	    -45.00000000	    -41.38212670	  -1341.25762664	  -3701.49822898	    141.20736023	    179.99999979	    355.22055735	   -324.18146266	     14.70261625	    -17.77704484
      4.11000000	      0.72239426	    -41.89393605	     90.00000000	     30.40969673	    774.24459750	    -34.19414755	     25.66269233	    -45.00000000	     40.50226810	    -45.00000000	    -45.00000000	  -3723.00811249	  -2983.81474454	    141.66157206	   -179.99999979	   1789.20460277	    424.79314355	     20.00319674	     14.87380500	     -6.51943939	     36.18817698	    -27.34199486	    -45.00000000	    -40.89965113	  -1340.98991665	  -3701.35013219	    141.18054473	    179.99999979	    355.07437693	   -324.69082856	     14.59808550	    -17.62616323
      4.12000000	      0.71347327	    -41.86438644	     90.00000000	     29.27359816	    773.98884021	    -34.18472814	     25.81249594	    -45.00000000	     40.55979674	    -45.00000000	    -45.00000000	  -3723.05841728	  -2983.58913358	    141.66141806	   -179.99999979	   1789.09594683	    424.53588065	     19.92734120	     14.92512060	     -6.59484160	     36.16482128	    -27.30627459	    -45.00000000	    -41.11403190	  -1340.96427491	  -3701.16502143	    141.19294052	    179.99999979	    355.02734825	   -325.14537649	     14.58967618	    -17.60234026
      4.13000000	      0.69761840	    -41.75019615	     90.00000000	     27.89987919	    773.78657900	    -34.16467422	     26.00313113	    -45.00000000	     40.79522589	    -45.00000000	    -45.00000000	  -3723.14563863	  -2983.29731385	    141.68610536	   -179.99999979	   1789.00481421	    424.57041245	     19.91424371	     14.95584294	     -6.59350733	     36.01280240	    -27.48625575	    -45.00000000	    -42.05980592	  -1341.02526099	  -3701.07708383	    141.16889775	    179.99999979	    355.07741303	   -325.62925172	     14.63783152	    -17.63598056
      4.14000000	      0.68002006	    -41.67112512	     90.00000000	     26.31120042	    773.62731301	    -34.13768471	     26.15380920	    -45.00000000	     40.99882699	    -45.00000000	    -45.00000000	  -3723.28769419	  -2983.06696043	    141.70372963	   -179.99999979	   1788.97959564	    424.75410364	     19.88310870	     14.90475835	     -6.72559689	     36.03020650	    -27.46611607	    -45.00000000	    -42.20670325	  -1340.96428122	  -3700.92529383	    141.19110943	    179.99999979	    355.05859027	   -325.98375926	     14.62505929	    -17.64298274
      4.15000000	      0.70060164	    -41.65306844	     90.00000000	     24.52149166	    773.50367112	    -34.10903184	     26.24772599	    -45.00000000	     41.27842949	    -45.00000000	    -45.00000000	  -3723.41340319	  -2982.90852379	    141.71070735	   -179.99999979	   1788.91963786	    424.98305156	     19.84942633	     14.86008162	     -6.85519583	     36.09287093	    -27.40238005	    -45.00000000	    -42.42596528	  -1340.91275035	  -3700.71905228	    141.19091573	    179.99999979	    355.00100124	   -326.20790952	     14.58283810	    -17.63477778
      4.16000000	      0.69982998	    -41.61970079	     90.00000000	     22.54129288	    773.41278575	    -34.08399441	     26.41842268	    -45.00000000	     41.55202804	    -45.00000000	    -45.00000000	  -3723.52694829	  -2982.71311521	    141.76313778	   -179.99999979	   1788.89210309	    425.19701511	     19.79640890	     14.78233306	     -6.91057513	     36.03986892	    -27.47790668	    -45.00000000	    -42.76659898	  -1340.75182763	  -3700.50490112	    141.18053640	    179.99999979	    355.01049230	   -326.35902193	     14.56455954	    -17.68682717
